<svg id="Capa_1" fill="#333333" enable-background="new 0 0 512 512" height="512" viewBox="0 0 512 512" width="512" xmlns="http://www.w3.org/2000/svg"><path d="m504.5 106.336h-28.199c-4.143 0-7.5 3.357-7.5 7.5v16.669h-45.801c-7.352 0-14.74.641-21.959 1.904-4.08.714-6.809 4.601-6.095 8.681.715 4.08 4.595 6.807 8.681 6.095 6.368-1.114 12.886-1.68 19.373-1.68h45.801v98.107h-45.803c-7.388 0-13.398 6.011-13.398 13.399v24.802h-98.108v-24.801c0-45.418 27.149-85.919 69.167-103.181 3.832-1.574 5.662-5.956 4.088-9.787-1.574-3.832-5.959-5.661-9.787-4.088-47.668 19.583-78.468 65.529-78.468 117.056v24.801h-16.776c-4.143 0-7.5 3.357-7.5 7.5v28.198c0 4.143 3.357 7.5 7.5 7.5h16.649c-1.354 14.876-13.891 26.569-29.114 26.569h-18.664c-16.124 0-29.241-13.117-29.241-29.241v-53.124h16.777c4.142 0 7.5-3.357 7.5-7.5v-28.199c0-4.143-3.358-7.5-7.5-7.5h-16.777v-42.922c0-69.757-56.751-126.508-126.508-126.508h-49.639v-16.775c0-4.143-3.358-7.5-7.5-7.5h-28.199c-4.142 0-7.5 3.357-7.5 7.5v161.661c0 4.143 3.358 7.5 7.5 7.5h28.199c4.142 0 7.5-3.357 7.5-7.5v-16.776h48.038v41.321h-16.778c-4.142 0-7.5 3.357-7.5 7.5v28.199c0 4.143 3.358 7.5 7.5 7.5h16.777v48.296c0 4.143 3.358 7.5 7.5 7.5s7.5-3.357 7.5-7.5v-48.296h98.108v53.124c0 24.366 19.8 44.192 44.155 44.239v98.111h-25.01c-64.654 0-117.254-52.6-117.254-117.254v-4.924c0-4.143-3.358-7.5-7.5-7.5s-7.5 3.357-7.5 7.5v4.924c0 72.925 59.329 132.254 132.254 132.254h68.855c72.925 0 132.254-59.329 132.254-132.254v-22.424h16.776c4.143 0 7.5-3.357 7.5-7.5v-28.198c0-4.143-3.357-7.5-7.5-7.5h-16.774v-23.201h44.201v16.886c0 4.143 3.357 7.5 7.5 7.5h28.199c4.143 0 7.5-3.357 7.5-7.5v-161.663c0-4.143-3.357-7.5-7.5-7.5zm-476.301 87.636h-13.199v-146.661h13.199zm78.037-10.877c0-7.389-6.011-13.399-13.4-13.399h-49.637v-98.109h49.638c61.486 0 111.508 50.022 111.508 111.508v42.922h-98.108v-42.922zm-24.277 57.922h146.662v13.199h-146.662zm327.641 106.419c0 64.654-52.6 117.254-117.254 117.254h-28.846v-98.108h3.75c23.497 0 42.766-18.415 44.153-41.569h98.197zm24.276-37.424h-146.661v-13.198h146.661zm63.124-42.014h-13.199v-146.662h13.199z"/></svg>